<?xml version="1.0" standalone="no"?>
<!DOCTYPE svg PUBLIC "-//W3C//DTD SVG 20010904//EN"
 "http://www.w3.org/TR/2001/REC-SVG-20010904/DTD/svg10.dtd">
<svg version="1.0" xmlns="http://www.w3.org/2000/svg"
 width="600.000000pt" height="600.000000pt" viewBox="0 0 600.000000 600.000000"
 preserveAspectRatio="xMidYMid meet">
<metadata>
Created by potrace 1.14, written by Peter Selinger 2001-2017
</metadata>
<g transform="translate(0.000000,600.000000) scale(0.100000,-0.100000)"
fill="#000000" stroke="none">
<path d="M2798 5715 c-1 -2 -36 -6 -76 -10 -41 -3 -81 -8 -90 -10 -9 -1 -37
-6 -62 -10 -49 -8 -55 -9 -120 -21 -51 -9 -59 -11 -62 -14 -3 -2 -16 -5 -53
-13 -74 -17 -242 -70 -315 -100 -14 -6 -27 -11 -30 -12 -129 -40 -482 -243
-652 -374 -197 -151 -445 -414 -567 -601 -20 -30 -39 -56 -43 -58 -5 -2 -8
-10 -8 -18 0 -8 -4 -14 -10 -14 -5 0 -10 -4 -10 -9 0 -5 -17 -38 -38 -72 -21
-35 -49 -86 -63 -112 -13 -26 -28 -57 -34 -67 -8 -16 -21 -20 -60 -21 -97 -1
-195 -27 -252 -66 -18 -13 -38 -23 -42 -23 -14 0 -119 -118 -146 -164 -14 -25
-35 -75 -46 -113 -18 -65 -19 -99 -16 -823 1 -415 6 -765 9 -777 67 -226 260
-374 490 -376 47 0 47 0 72 -51 35 -70 93 -173 116 -206 11 -16 20 -33 20 -38
0 -6 3 -12 8 -14 4 -1 21 -23 37 -48 107 -161 343 -425 470 -527 77 -62 109
-88 127 -106 10 -9 21 -17 24 -17 6 0 95 -61 104 -71 3 -3 50 -33 105 -67 121
-73 333 -176 469 -227 109 -40 329 -103 389 -110 22 -3 42 -7 47 -10 4 -2 26
-7 50 -10 23 -3 54 -7 69 -10 182 -32 528 -36 713 -9 18 2 49 6 68 9 126 15
423 87 515 125 11 4 63 25 115 45 269 106 523 260 750 453 76 66 247 238 295
297 22 28 48 57 57 66 10 9 18 21 18 27 0 6 4 12 8 14 12 5 112 144 112 156 0
6 4 12 9 14 10 3 118 186 156 263 11 22 21 42 23 44 1 2 24 5 50 7 194 8 356
106 442 265 61 114 60 103 60 899 0 790 -2 809 -57 913 -65 121 -214 233 -338
254 -16 3 -37 7 -45 8 -8 2 -38 4 -66 4 -50 1 -50 1 -73 49 -35 73 -167 290
-216 357 -73 99 -87 116 -155 195 -96 112 -212 225 -339 332 -8 6 -46 35 -85
64 -39 30 -76 58 -83 64 -7 5 -14 10 -16 10 -2 0 -37 22 -78 49 -128 84 -345
193 -494 247 -65 24 -159 55 -178 59 -9 2 -21 6 -25 9 -5 3 -19 7 -33 10 -13
2 -60 14 -104 25 -44 11 -96 22 -115 25 -19 3 -46 8 -60 11 -14 2 -47 7 -75
10 -27 3 -63 8 -80 11 -34 6 -481 14 -487 9z m328 -361 c96 -46 203 -158 294
-308 l23 -38 -39 5 c-21 3 -46 8 -54 11 -8 2 -40 8 -70 11 -218 26 -438 23
-615 -9 -16 -3 -47 -8 -68 -11 l-38 -6 23 40 c34 61 102 150 154 203 126 128
262 164 390 102z m-812 -111 c-15 -27 -35 -59 -44 -73 -30 -44 -145 -288 -142
-302 1 -3 -38 -28 -86 -54 -89 -48 -265 -162 -316 -205 -32 -27 -116 -103
-161 -146 -50 -46 -181 -197 -210 -242 l-28 -41 -199 0 -200 0 23 38 c106 177
224 328 371 473 92 91 122 118 222 197 22 17 46 37 53 42 45 37 216 142 318
194 115 59 375 164 413 165 8 1 3 -16 -14 -46z m1434 23 c29 -8 60 -20 68 -26
8 -7 14 -10 14 -7 0 27 483 -223 521 -269 6 -8 17 -14 24 -14 8 0 15 -3 17 -8
2 -4 34 -32 73 -62 161 -125 292 -257 428 -431 24 -30 126 -182 156 -231 l23
-38 -199 0 -200 0 -34 48 c-103 144 -259 300 -424 423 -80 60 -171 119 -183
119 -6 0 -12 3 -14 8 -1 4 -34 24 -72 43 l-68 36 -38 90 c-36 85 -97 206 -145
283 -40 66 -40 64 -19 57 10 -3 43 -12 72 -21z m-2618 -1425 c0 -5 -42 -118
-65 -176 -10 -24 -8 -19 -24 -75 -7 -25 -15 -53 -17 -63 -2 -10 -6 -27 -9 -37
-7 -24 -20 -86 -40 -209 -12 -71 -24 -381 -15 -381 3 0 5 -13 4 -30 0 -16 3
-55 7 -87 5 -32 11 -78 14 -103 4 -25 9 -54 12 -65 3 -11 7 -29 8 -40 6 -50
72 -263 88 -282 5 -7 7 -13 4 -13 -3 0 5 -25 19 -55 l24 -56 -348 3 -349 3
-35 25 c-78 53 -73 0 -74 795 -1 749 -1 748 44 799 44 49 68 52 421 52 182 0
331 -2 331 -5z m4450 -18 c43 -27 64 -51 77 -89 6 -18 9 -301 8 -739 l-1 -710
-24 -38 c-14 -20 -43 -46 -66 -57 -39 -19 -58 -20 -377 -18 l-337 3 14 26 c14
28 85 222 91 249 2 8 10 42 18 75 14 54 43 218 46 255 0 8 3 49 6 90 10 141 5
331 -11 415 -4 17 -7 39 -9 50 -12 106 -75 332 -125 450 -11 26 -18 50 -15 54
2 4 154 7 337 7 325 -1 334 -2 368 -23z m-4247 -1993 c3 -3 33 -40 67 -83 109
-139 262 -284 405 -387 39 -27 75 -54 82 -60 7 -5 62 -37 122 -71 73 -40 112
-68 117 -82 11 -37 152 -319 185 -370 17 -26 30 -50 28 -51 -5 -4 -205 64
-264 89 -91 39 -250 118 -253 126 -2 5 -8 9 -14 9 -9 0 -192 116 -221 140 -7
6 -47 37 -89 70 -95 74 -263 239 -344 340 -89 111 -224 310 -224 331 0 7 397
5 403 -1z m3737 2 c0 -29 -166 -267 -270 -386 -55 -64 -220 -226 -230 -226 -5
0 -10 -3 -10 -8 0 -4 -32 -32 -71 -62 -39 -30 -77 -61 -84 -67 -8 -7 -17 -13
-20 -13 -4 0 -24 -13 -44 -29 -20 -15 -49 -36 -66 -45 -16 -9 -46 -26 -65 -38
-64 -38 -194 -103 -280 -140 -91 -39 -270 -99 -270 -91 0 3 20 37 44 77 43 67
156 296 170 343 5 14 37 38 93 68 73 40 173 101 208 128 6 4 33 24 60 44 28
21 66 51 85 68 60 52 251 247 268 274 15 24 36 50 72 90 14 15 41 17 213 17
108 0 197 -2 197 -4z m-2436 -827 c121 -23 197 -29 366 -30 140 0 255 7 314
20 23 5 69 13 101 17 27 4 22 -20 -17 -80 -107 -160 -220 -262 -323 -291 -23
-6 -133 -6 -155 1 -92 28 -210 131 -291 253 -39 58 -80 125 -77 125 2 0 39 -7
82 -15z"/>
</g>
</svg>
